<svg width="26" height="26" viewBox="0 0 26 26" fill="none" xmlns="http://www.w3.org/2000/svg">
<path d="M16.25 9.74992H18.4167V11.9166H16.25V9.74992ZM18.4167 5.41658H16.25V7.58325H18.4167V5.41658ZM11.9167 16.2499H14.0833V14.0833H11.9167V16.2499ZM14.0833 5.41658H11.9167V7.58325H14.0833V5.41658ZM11.9167 11.9166H14.0833V9.74992H11.9167V11.9166ZM9.75 5.41658H7.58333V7.58325H9.75V5.41658ZM9.75 9.74992H7.58333V11.9166H9.75V9.74992ZM15.7625 22.7499H14.0833V18.9583H11.9167V22.7499H5.41667V3.24992H20.5833V11.9491C21.3525 12.0141 22.0892 12.2524 22.75 12.5991V1.08325H3.25V24.9166H17.2358C16.7917 24.3099 16.25 23.5732 15.7625 22.7499ZM7.58333 20.5833H9.75V18.4166H7.58333V20.5833ZM9.75 14.0833H7.58333V16.2499H9.75V14.0833ZM23.8333 17.8749C23.8333 20.6916 20.0417 24.9166 20.0417 24.9166C20.0417 24.9166 16.25 20.6916 16.25 17.8749C16.25 15.8166 17.9833 14.0833 20.0417 14.0833C22.1 14.0833 23.8333 15.8166 23.8333 17.8749ZM21.3417 17.9833C21.3417 17.3333 20.6917 16.6833 20.0417 16.6833C19.3917 16.6833 18.7417 17.2249 18.7417 17.9833C18.7417 18.6333 19.2833 19.2832 20.0417 19.2832C20.8 19.2832 21.45 18.6333 21.3417 17.9833Z" fill="white"/>
</svg>
