<svg width="217" height="217" viewBox="0 0 217 217" fill="none" xmlns="http://www.w3.org/2000/svg">
<path d="M113.569 46.9542C113.068 47.4563 112.787 48.1373 112.787 48.8473C112.787 49.5573 113.068 50.2383 113.569 50.7404L126.788 63.9949L113.569 77.2494C113.083 77.7544 112.813 78.4308 112.82 79.1328C112.826 79.8349 113.107 80.5065 113.602 81.003C114.097 81.4994 114.767 81.781 115.467 81.7871C116.167 81.7932 116.842 81.5233 117.345 81.0356L132.452 65.888C132.953 65.3859 133.234 64.7049 133.234 63.9949C133.234 63.2849 132.953 62.6039 132.452 62.1018L117.345 46.9542C116.844 46.4522 116.165 46.1702 115.457 46.1702C114.749 46.1702 114.07 46.4522 113.569 46.9542Z" fill="white"/>
</svg>
