<svg width="20" height="20" viewBox="0 0 20 20" fill="none" xmlns="http://www.w3.org/2000/svg">
<path d="M17.1875 2.1875H2.8125C2.4668 2.1875 2.1875 2.4668 2.1875 2.8125V17.1875C2.1875 17.5332 2.4668 17.8125 2.8125 17.8125H17.1875C17.5332 17.8125 17.8125 17.5332 17.8125 17.1875V2.8125C17.8125 2.4668 17.5332 2.1875 17.1875 2.1875ZM16.5625 16.5625H12.9668V11.7617H14.998L15.3027 9.4043H12.9668V7.89844C12.9668 7.21484 13.1562 6.75 14.1348 6.75H15.3828V4.64062C15.166 4.61133 14.4258 4.54688 13.5625 4.54688C11.7617 4.54688 10.5293 5.64648 10.5293 7.66406V9.40234H8.49414V11.7598H10.5312V16.5625H3.4375V3.4375H16.5625V16.5625Z" fill="white"/>
</svg>
