<svg width="30" height="27" viewBox="0 0 30 27" fill="none" xmlns="http://www.w3.org/2000/svg">
<path d="M28.5781 13.5441L16.5031 1.77963L15.6937 0.990659C15.5093 0.812079 15.2599 0.711853 15 0.711853C14.74 0.711853 14.4906 0.812079 14.3062 0.990659L1.42186 13.5441C1.23289 13.7276 1.08355 13.9461 0.982646 14.1868C0.881742 14.4275 0.83132 14.6854 0.834358 14.9454C0.846858 16.0177 1.76248 16.8736 2.86248 16.8736H4.19061V26.7952H25.8094V16.8736H27.1656C27.7 16.8736 28.2031 16.6695 28.5812 16.301C28.7674 16.12 28.9149 15.9049 29.0153 15.6681C29.1156 15.4312 29.1667 15.1773 29.1656 14.921C29.1656 14.4032 28.9562 13.9127 28.5781 13.5441ZM16.75 24.6019H13.25V18.3876H16.75V24.6019ZM23.5594 14.6804V24.6019H18.75V17.6565C18.75 16.9833 18.1906 16.438 17.5 16.438H12.5C11.8094 16.438 11.25 16.9833 11.25 17.6565V24.6019H6.44061V14.6804H3.44061L15.0031 3.41849L15.725 4.12217L26.5625 14.6804H23.5594Z" fill="#00985B"/>
</svg>
