<svg width="24" height="24" viewBox="0 0 24 24" fill="none" xmlns="http://www.w3.org/2000/svg">
<path d="M9.74998 8.39998C9.89398 7.28398 10.134 6.29398 10.4388 5.49958C10.6944 4.83478 10.9848 4.33678 11.2764 4.01638C11.568 3.69598 11.8128 3.59998 12 3.59998C12.1872 3.59998 12.432 3.69598 12.7236 4.01638C13.0152 4.33678 13.3056 4.83478 13.5612 5.49958C13.8672 6.29398 14.1072 7.28398 14.25 8.39998H9.74998ZM9.31798 5.06878C9.47998 4.64998 9.66238 4.26238 9.86758 3.92038C8.79639 4.25368 7.81764 4.83208 7.00901 5.60968C6.20038 6.38727 5.58413 7.34265 5.20918 8.39998H8.54038C8.69158 7.13998 8.96038 6.00118 9.31918 5.06878H9.31798ZM14.682 5.06878C14.532 4.67093 14.3482 4.28671 14.1324 3.92038C15.2036 4.25368 16.1823 4.83208 16.9909 5.60968C17.7996 6.38727 18.4158 7.34265 18.7908 8.39998H15.4596C15.3084 7.13998 15.0396 6.00118 14.6808 5.06878H14.682ZM15.564 9.59998H19.0992C19.2326 10.3944 19.2326 11.2055 19.0992 12H15.564C15.6101 11.2006 15.6101 10.3993 15.564 9.59998ZM15.4584 13.2H18.7896C18.4146 14.2573 17.7984 15.2127 16.9897 15.9903C16.1811 16.7679 15.2024 17.3463 14.1312 17.6796C14.3352 17.3376 14.5188 16.95 14.6796 16.5312C15.0396 15.5988 15.3072 14.46 15.4596 13.2H15.4584ZM12.7224 17.5836C12.4308 17.904 12.186 18 11.9988 18C11.8116 18 11.5668 17.904 11.2752 17.5836C10.9836 17.2632 10.6932 16.7652 10.4376 16.1004C10.1316 15.306 9.89158 14.3172 9.74878 13.2H14.2488C14.1048 14.316 13.8648 15.306 13.56 16.1004C13.3044 16.7652 13.014 17.2632 12.7224 17.5836ZM5.20918 13.2C5.58413 14.2573 6.20038 15.2127 7.00901 15.9903C7.81764 16.7679 8.79639 17.3463 9.86758 17.6796C9.65221 17.3132 9.46874 16.929 9.31918 16.5312C8.95918 15.5988 8.69158 14.46 8.53918 13.2H5.21038H5.20918ZM8.43478 12H4.89958C4.76621 11.2055 4.76621 10.3944 4.89958 9.59998H8.43478C8.38876 10.3993 8.38876 11.2006 8.43478 12ZM9.63598 9.59998C9.58704 10.3992 9.58704 11.2007 9.63598 12H14.364C14.4129 11.2007 14.4129 10.3992 14.364 9.59998H9.63598ZM4.19998 15.6H5.10598C5.40358 16.0272 5.74078 16.4256 6.11038 16.7904C6.07395 16.797 6.037 16.8002 5.99998 16.8H4.66798L3.76798 20.4H20.232L19.332 16.8H18C17.963 16.8002 17.926 16.797 17.8896 16.7904C18.2603 16.4253 18.5966 16.0269 18.894 15.6H19.8C19.9338 15.6 20.0638 15.6448 20.1693 15.7272C20.2747 15.8096 20.3496 15.9249 20.382 16.0548L21.582 20.8548C21.604 20.9432 21.6057 21.0355 21.5867 21.1246C21.5678 21.2138 21.5288 21.2975 21.4727 21.3693C21.4166 21.4411 21.3449 21.4992 21.263 21.5392C21.1811 21.5792 21.0911 21.5999 21 21.6H2.99998C2.90884 21.5999 2.81891 21.5792 2.737 21.5392C2.6551 21.4992 2.58337 21.4411 2.52727 21.3693C2.47118 21.2975 2.43218 21.2138 2.41324 21.1246C2.3943 21.0355 2.39593 20.9432 2.41798 20.8548L3.61798 16.0548C3.65037 15.9249 3.72525 15.8096 3.8307 15.7272C3.93616 15.6448 4.06614 15.6 4.19998 15.6Z" fill="black"/>
</svg>
