<svg width="19" height="19" viewBox="0 0 19 19" fill="none" xmlns="http://www.w3.org/2000/svg">
<g clip-path="url(#clip0_9_1246)">
<path d="M1.1875 14.25C1.18852 14.7485 1.29483 15.2412 1.49947 15.6959C1.70411 16.1505 2.00247 16.5567 2.375 16.8881V18.4062C2.375 18.5637 2.43756 18.7147 2.54891 18.8261C2.66026 18.9374 2.81128 19 2.96875 19H4.15625C4.31372 19 4.46475 18.9374 4.57609 18.8261C4.68744 18.7147 4.75 18.5637 4.75 18.4062V17.8125H14.25V18.4062C14.25 18.5637 14.3126 18.7147 14.4239 18.8261C14.5353 18.9374 14.6863 19 14.8438 19H16.0312C16.1887 19 16.3397 18.9374 16.4511 18.8261C16.5624 18.7147 16.625 18.5637 16.625 18.4062V16.8881C16.9975 16.5567 17.2959 16.1505 17.5005 15.6959C17.7052 15.2412 17.8115 14.7485 17.8125 14.25V12.4687H1.1875V14.25ZM18.4062 9.49997H2.96875V2.56979C2.96909 2.41396 3.01557 2.26171 3.10233 2.13226C3.18909 2.00282 3.31224 1.90196 3.45625 1.84242C3.60026 1.78288 3.75868 1.76732 3.91153 1.7977C4.06437 1.82809 4.20479 1.90306 4.31508 2.01315L5.03018 2.72788C4.54293 3.83671 4.74777 4.92141 5.35006 5.68661L5.34375 5.69292C5.23282 5.80421 5.17054 5.95493 5.17054 6.11207C5.17054 6.2692 5.23282 6.41992 5.34375 6.53122L5.76346 6.95092C5.81859 7.00607 5.88405 7.04982 5.9561 7.07967C6.02815 7.10951 6.10537 7.12488 6.18335 7.12488C6.26133 7.12488 6.33855 7.10951 6.4106 7.07967C6.48265 7.04982 6.54811 7.00607 6.60324 6.95092L10.5135 3.04071C10.5686 2.98557 10.6124 2.92011 10.6422 2.84807C10.672 2.77602 10.6874 2.6988 10.6874 2.62082C10.6874 2.54283 10.672 2.46561 10.6422 2.39357C10.6124 2.32152 10.5686 2.25606 10.5135 2.20093L10.0938 1.78122C9.98241 1.66995 9.83145 1.60745 9.67404 1.60745C9.51664 1.60745 9.36567 1.66995 9.25434 1.78122L9.24803 1.78753C8.48283 1.18524 7.39887 0.980398 6.2893 1.46764L5.57457 0.752547C5.21517 0.393108 4.75726 0.148322 4.25873 0.049147C3.76021 -0.0500277 3.24347 0.000863733 2.77387 0.195385C2.30427 0.389906 1.9029 0.71932 1.62053 1.14196C1.33815 1.56461 1.18746 2.0615 1.1875 2.56979V9.49997H0.59375C0.436278 9.49997 0.285255 9.56252 0.173905 9.67387C0.0625556 9.78522 0 9.93624 0 10.0937L0 10.6875C0 10.8449 0.0625556 10.996 0.173905 11.1073C0.285255 11.2187 0.436278 11.2812 0.59375 11.2812H18.4062C18.5637 11.2812 18.7147 11.2187 18.8261 11.1073C18.9374 10.996 19 10.8449 19 10.6875V10.0937C19 9.93624 18.9374 9.78522 18.8261 9.67387C18.7147 9.56252 18.5637 9.49997 18.4062 9.49997Z" fill="black"/>
</g>
<defs>
<clipPath id="clip0_9_1246">
<rect width="19" height="19" fill="white"/>
</clipPath>
</defs>
</svg>
