<svg width="28" height="27" viewBox="0 0 28 27" fill="none" xmlns="http://www.w3.org/2000/svg">
<path d="M2.33337 8.21317C2.33337 7.63148 2.57921 7.07361 3.01679 6.66229C3.45438 6.25097 4.04787 6.0199 4.66671 6.0199H23.3334C23.9522 6.0199 24.5457 6.25097 24.9833 6.66229C25.4209 7.07361 25.6667 7.63148 25.6667 8.21317V19.1796C25.6667 19.7613 25.4209 20.3191 24.9833 20.7304C24.5457 21.1418 23.9522 21.3728 23.3334 21.3728H4.66671C4.04787 21.3728 3.45438 21.1418 3.01679 20.7304C2.57921 20.3191 2.33337 19.7613 2.33337 19.1796V8.21317Z" stroke="#00985B" stroke-width="2" stroke-linecap="round" stroke-linejoin="round"/>
<path d="M14 16.9863C15.933 16.9863 17.5 15.5133 17.5 13.6963C17.5 11.8794 15.933 10.4064 14 10.4064C12.067 10.4064 10.5 11.8794 10.5 13.6963C10.5 15.5133 12.067 16.9863 14 16.9863Z" stroke="#00985B" stroke-width="2" stroke-linecap="round" stroke-linejoin="round"/>
<path d="M2.33337 10.4065C3.57105 10.4065 4.75804 9.9443 5.63321 9.12166C6.50838 8.29902 7.00004 7.18328 7.00004 6.0199" stroke="#00985B" stroke-width="2" stroke-linecap="round" stroke-linejoin="round"/>
<path d="M21 21.3728C21 20.2094 21.4917 19.0937 22.3668 18.2711C23.242 17.4484 24.429 16.9863 25.6667 16.9863" stroke="#00985B" stroke-width="2" stroke-linecap="round" stroke-linejoin="round"/>
</svg>
