<svg width="26" height="26" viewBox="0 0 26 26" fill="none" xmlns="http://www.w3.org/2000/svg">
<path d="M23.1111 4.33325H2.8889C2.50581 4.33325 2.13841 4.48543 1.86753 4.75632C1.59664 5.02721 1.44446 5.39461 1.44446 5.7777V20.2221C1.44446 20.6052 1.59664 20.9726 1.86753 21.2435C2.13841 21.5144 2.50581 21.6666 2.8889 21.6666H23.1111C23.4942 21.6666 23.8616 21.5144 24.1325 21.2435C24.4034 20.9726 24.5556 20.6052 24.5556 20.2221V5.7777C24.5556 5.39461 24.4034 5.02721 24.1325 4.75632C23.8616 4.48543 23.4942 4.33325 23.1111 4.33325ZM21.9989 20.2221H4.08779L9.14335 14.9932L8.10335 13.9894L2.8889 19.3844V6.87547L11.8661 15.8094C12.1368 16.0784 12.5029 16.2294 12.8845 16.2294C13.2661 16.2294 13.6322 16.0784 13.9028 15.8094L23.1111 6.65158V19.2905L17.7956 13.9749L16.7772 14.9932L21.9989 20.2221ZM3.83501 5.7777H21.9411L12.8845 14.7838L3.83501 5.7777Z" fill="white"/>
</svg>
