<svg width="26" height="26" viewBox="0 0 26 26" fill="none" xmlns="http://www.w3.org/2000/svg">
<path d="M2.4375 9.75C2.4375 4.0625 8.125 4.0625 13 4.0625C17.875 4.0625 23.5625 4.0625 23.5625 9.75C23.5625 16.25 17.875 8.9375 17.875 8.9375H8.125C8.125 8.9375 2.4375 16.25 2.4375 9.75ZM8.9375 11.375C8.9375 11.375 4.875 15.4375 4.875 22.75H21.125C21.125 15.4375 17.0625 11.375 17.0625 11.375H8.9375Z" stroke="white" stroke-width="2" stroke-linecap="round" stroke-linejoin="round"/>
<path d="M13 20.3125C14.7949 20.3125 16.25 18.8574 16.25 17.0625C16.25 15.2676 14.7949 13.8125 13 13.8125C11.2051 13.8125 9.75 15.2676 9.75 17.0625C9.75 18.8574 11.2051 20.3125 13 20.3125Z" stroke="white" stroke-width="2" stroke-linecap="round" stroke-linejoin="round"/>
</svg>
