<svg width="17" height="16" viewBox="0 0 17 16" fill="none" xmlns="http://www.w3.org/2000/svg">
<g clip-path="url(#clip0_24_46)">
<path d="M16.2917 2.0067C16.2917 2.0067 14.8623 2.80137 14.0675 3.0267C13.6409 2.56504 13.074 2.23783 12.4434 2.08932C11.8127 1.94081 11.1489 1.97817 10.5415 2.19634C9.93418 2.41451 9.41269 2.80297 9.04757 3.30918C8.68245 3.81539 8.49133 4.41493 8.50004 5.0267V5.69337C7.25524 5.72375 6.02178 5.46391 4.90951 4.937C3.79723 4.41009 2.84068 3.63246 2.12504 2.67337C2.12504 2.67337 -0.708293 8.67337 5.66671 11.34C4.20791 12.272 2.47011 12.7393 0.708374 12.6734C7.08337 16.0067 14.875 12.6734 14.875 5.0067C14.875 4.82137 14.8552 4.63604 14.8184 4.45337C15.5409 3.7827 16.2917 2.0067 16.2917 2.0067Z" stroke="white" stroke-width="1.5" stroke-linecap="round" stroke-linejoin="round"/>
</g>
<defs>
<clipPath id="clip0_24_46">
<rect width="17" height="16" fill="white"/>
</clipPath>
</defs>
</svg>
